<?xml version="1.0" encoding="UTF-8" standalone="no"?>
<svg
   version="1.1"
   width="171.5770mm"
   height="101.1682mm"
   viewBox="0.0000 0.0000 171.5770 101.1682"
   id="svg676"
   sodipodi:docname="pcb-brd.svg"
   inkscape:version="1.2.2 (732a01da63, 2022-12-09)"
   xmlns:inkscape="http://www.inkscape.org/namespaces/inkscape"
   xmlns:sodipodi="http://sodipodi.sourceforge.net/DTD/sodipodi-0.dtd"
   xmlns="http://www.w3.org/2000/svg"
   xmlns:svg="http://www.w3.org/2000/svg">
  <defs
     id="defs680" />
  <sodipodi:namedview
     id="namedview678"
     pagecolor="#ffffff"
     bordercolor="#000000"
     borderopacity="0.25"
     inkscape:showpageshadow="2"
     inkscape:pageopacity="0.0"
     inkscape:pagecheckerboard="0"
     inkscape:deskcolor="#d1d1d1"
     inkscape:document-units="mm"
     showgrid="false"
     inkscape:zoom="1.8659018"
     inkscape:cx="324.50796"
     inkscape:cy="191.32839"
     inkscape:window-width="3440"
     inkscape:window-height="1369"
     inkscape:window-x="-8"
     inkscape:window-y="-8"
     inkscape:window-maximized="1"
     inkscape:current-layer="svg676" />
  <title
     id="title2">SVG Image created as pcb-brd.svg date 2024/01/26 19:39:42 </title>
  <desc
     id="desc4">Image generated by PCBNEW </desc>
  <g
     style="fill:#000000; fill-opacity:1.0000;stroke:#000000; stroke-opacity:1.0000; stroke-linecap:round; stroke-linejoin:round;"
     transform="translate(0 0) scale(1 1)"
     id="g6" />
  <g
     style="fill:#000000; fill-opacity:0.0;  stroke:#000000; stroke-width:0.0000; stroke-opacity:1;  stroke-linecap:round; stroke-linejoin:round;"
     id="g8" />
  <g
     style="fill:#000000; fill-opacity:0.0;  stroke:#000000; stroke-width:0.1524; stroke-opacity:1;  stroke-linecap:round; stroke-linejoin:round;"
     id="g90">
    <path
       d="M104.1123 74.0594 L117.8997 76.4904 "
       id="path10" />
    <path
       d="M101.6813 87.8467 L104.1123 74.0594 "
       id="path12" />
    <path
       d="M117.8997 76.4904 L115.4686 90.2777 "
       id="path14" />
    <path
       d="M115.4686 90.2777 L101.6813 87.8467 "
       id="path16" />
    <path
       d="M4.4500 55.3946 L18.4500 55.3946 "
       id="path18" />
    <path
       d="M4.4500 69.3946 L4.4500 55.3946 "
       id="path20" />
    <path
       d="M18.4500 55.3946 L18.4500 69.3946 "
       id="path22" />
    <path
       d="M18.4500 69.3946 L4.4500 69.3946 "
       id="path24" />
    <path
       d="M23.4500 63.3946 L37.4500 63.3946 "
       id="path26" />
    <path
       d="M23.4500 77.3946 L23.4500 63.3946 "
       id="path28" />
    <path
       d="M37.4500 63.3946 L37.4500 77.3946 "
       id="path30" />
    <path
       d="M37.4500 77.3946 L23.4500 77.3946 "
       id="path32" />
    <path
       d="M80.4500 19.8946 L94.4500 19.8946 "
       id="path34" />
    <path
       d="M80.4500 33.8946 L80.4500 19.8946 "
       id="path36" />
    <path
       d="M94.4500 19.8946 L94.4500 33.8946 "
       id="path38" />
    <path
       d="M94.4500 33.8946 L80.4500 33.8946 "
       id="path40" />
    <path
       d="M42.4500 19.8946 L56.4500 19.8946 "
       id="path42" />
    <path
       d="M42.4500 33.8946 L42.4500 19.8946 "
       id="path44" />
    <path
       d="M56.4500 19.8946 L56.4500 33.8946 "
       id="path46" />
    <path
       d="M56.4500 33.8946 L42.4500 33.8946 "
       id="path48" />
    <path
       d="M61.4500 46.8946 L75.4500 46.8946 "
       id="path50" />
    <path
       d="M61.4500 60.8946 L61.4500 46.8946 "
       id="path52" />
    <path
       d="M75.4500 46.8946 L75.4500 60.8946 "
       id="path54" />
    <path
       d="M75.4500 60.8946 L61.4500 60.8946 "
       id="path56" />
    <path
       d="M61.4500 14.8946 L75.4500 14.8946 "
       id="path58" />
    <path
       d="M61.4500 28.8946 L61.4500 14.8946 "
       id="path60" />
    <path
       d="M75.4500 14.8946 L75.4500 28.8946 "
       id="path62" />
    <path
       d="M75.4500 28.8946 L61.4500 28.8946 "
       id="path64" />
    <path
       d="M99.4500 54.3946 L113.4500 54.3946 "
       id="path66" />
    <path
       d="M99.4500 68.3946 L99.4500 54.3946 "
       id="path68" />
    <path
       d="M113.4500 54.3946 L113.4500 68.3946 "
       id="path70" />
    <path
       d="M113.4500 68.3946 L99.4500 68.3946 "
       id="path72" />
    <path
       d="M4.4500 39.3946 L18.4500 39.3946 "
       id="path74" />
    <path
       d="M4.4500 53.3946 L4.4500 39.3946 "
       id="path76" />
    <path
       d="M18.4500 39.3946 L18.4500 53.3946 "
       id="path78" />
    <path
       d="M18.4500 53.3946 L4.4500 53.3946 "
       id="path80" />
    <path
       d="M80.4500 51.8946 L94.4500 51.8946 "
       id="path82" />
    <path
       d="M80.4500 65.8946 L80.4500 51.8946 "
       id="path84" />
    <path
       d="M94.4500 51.8946 L94.4500 65.8946 "
       id="path86" />
    <path
       d="M94.4500 65.8946 L80.4500 65.8946 "
       id="path88" />
  </g>
  <g
     style="fill:#000000; fill-opacity:0.0;  stroke:#000000; stroke-width:0.1524; stroke-opacity:1;  stroke-linecap:round; stroke-linejoin:round;"
     id="g190">
    <path
       d="M80.4500 35.8946 L94.4500 35.8946 "
       id="path110" />
    <path
       d="M80.4500 49.8946 L80.4500 35.8946 "
       id="path112" />
    <path
       d="M94.4500 35.8946 L94.4500 49.8946 "
       id="path114" />
    <path
       d="M94.4500 49.8946 L80.4500 49.8946 "
       id="path116" />
    <path
       d="M125.3848 78.5590 L138.5405 83.3473 "
       id="path118" />
    <path
       d="M120.5965 91.7147 L125.3848 78.5590 "
       id="path120" />
    <path
       d="M138.5405 83.3473 L133.7522 96.5030 "
       id="path122" />
    <path
       d="M133.7522 96.5030 L120.5965 91.7147 "
       id="path124" />
    <path
       d="M23.4500 47.3946 L37.4500 47.3946 "
       id="path126" />
    <path
       d="M23.4500 61.3946 L23.4500 47.3946 "
       id="path128" />
    <path
       d="M37.4500 47.3946 L37.4500 61.3946 "
       id="path130" />
    <path
       d="M37.4500 61.3946 L23.4500 61.3946 "
       id="path132" />
    <path
       d="M99.4500 22.3946 L113.4500 22.3946 "
       id="path134" />
    <path
       d="M99.4500 36.3946 L99.4500 22.3946 "
       id="path136" />
    <path
       d="M113.4500 22.3946 L113.4500 36.3946 "
       id="path138" />
    <path
       d="M113.4500 36.3946 L99.4500 36.3946 "
       id="path140" />
    <path
       d="M82.4500 73.3946 L96.4500 73.3946 "
       id="path142" />
    <path
       d="M82.4500 87.3946 L82.4500 73.3946 "
       id="path144" />
    <path
       d="M96.4500 73.3946 L96.4500 87.3946 "
       id="path146" />
    <path
       d="M96.4500 87.3946 L82.4500 87.3946 "
       id="path148" />
    <path
       d="M99.4500 38.3946 L113.4500 38.3946 "
       id="path150" />
    <path
       d="M99.4500 52.3946 L99.4500 38.3946 "
       id="path152" />
    <path
       d="M113.4500 38.3946 L113.4500 52.3946 "
       id="path154" />
    <path
       d="M113.4500 52.3946 L99.4500 52.3946 "
       id="path156" />
    <path
       d="M23.4500 31.3946 L37.4500 31.3946 "
       id="path158" />
    <path
       d="M23.4500 45.3946 L23.4500 31.3946 "
       id="path160" />
    <path
       d="M37.4500 31.3946 L37.4500 45.3946 "
       id="path162" />
    <path
       d="M37.4500 45.3946 L23.4500 45.3946 "
       id="path164" />
    <path
       d="M42.4500 51.8946 L56.4500 51.8946 "
       id="path166" />
    <path
       d="M42.4500 65.8946 L42.4500 51.8946 "
       id="path168" />
    <path
       d="M56.4500 51.8946 L56.4500 65.8946 "
       id="path170" />
    <path
       d="M56.4500 65.8946 L42.4500 65.8946 "
       id="path172" />
    <path
       d="M42.4500 35.8946 L56.4500 35.8946 "
       id="path174" />
    <path
       d="M42.4500 49.8946 L42.4500 35.8946 "
       id="path176" />
    <path
       d="M56.4500 35.8946 L56.4500 49.8946 "
       id="path178" />
    <path
       d="M56.4500 49.8946 L42.4500 49.8946 "
       id="path180" />
    <path
       d="M61.4500 30.8946 L75.4500 30.8946 "
       id="path182" />
    <path
       d="M61.4500 44.8946 L61.4500 30.8946 "
       id="path184" />
    <path
       d="M75.4500 30.8946 L75.4500 44.8946 "
       id="path186" />
    <path
       d="M75.4500 44.8946 L61.4500 44.8946 "
       id="path188" />
  </g>
  <g
     style="fill:#000000; fill-opacity:0.0;  stroke:#000000; stroke-width:0.1200; stroke-opacity:1;  stroke-linecap:round; stroke-linejoin:round;"
     id="g326" />
  <g
     style="fill:#000000; fill-opacity:0.0;  stroke:#000000; stroke-width:0.1200; stroke-opacity:1;  stroke-linecap:round; stroke-linejoin:round;"
     id="g458">
    <circle
       cx="68.4500"
       cy="80.3946"
       r="10.0000"
       id="circle332" />
    <g
       id="g334" />
    <g
       id="g336" />
    <g
       id="g338" />
    <g
       id="g340" />
    <g
       id="g342" />
    <g
       id="g344" />
    <g
       id="g346" />
    <g
       id="g348" />
    <g
       id="g350" />
    <g
       id="g352" />
    <g
       id="g354" />
    <g
       id="g356" />
    <g
       id="g358" />
    <g
       id="g360" />
    <g
       id="g362" />
    <g
       id="g364" />
    <g
       id="g366" />
    <g
       id="g368" />
    <g
       id="g370" />
    <g
       id="g372" />
    <g
       id="g374" />
    <g
       id="g376" />
    <g
       id="g378" />
    <g
       id="g380" />
    <g
       id="g382" />
    <g
       id="g384" />
    <g
       id="g386" />
    <g
       id="g388" />
    <g
       id="g390" />
    <g
       id="g392" />
    <g
       id="g394" />
    <g
       id="g396" />
    <g
       id="g398" />
    <g
       id="g400" />
    <g
       id="g402" />
    <g
       id="g404" />
    <g
       id="g406" />
    <g
       id="g408" />
    <g
       id="g410" />
    <g
       id="g412" />
    <g
       id="g414" />
    <g
       id="g416" />
    <g
       id="g418" />
    <g
       id="g420" />
    <g
       id="g422" />
    <g
       id="g424" />
    <g
       id="g426" />
    <g
       id="g428" />
    <g
       id="g430" />
    <g
       id="g432" />
    <g
       id="g434" />
    <g
       id="g436" />
    <g
       id="g438" />
    <g
       id="g440" />
    <g
       id="g442" />
    <g
       id="g444" />
    <g
       id="g446" />
    <g
       id="g448" />
    <g
       id="g450" />
    <g
       id="g452" />
    <g
       id="g454" />
    <g
       id="g456" />
  </g>
  <g
     style="fill:#000000; fill-opacity:0.0;  stroke:#000000; stroke-width:0.1200; stroke-opacity:1;  stroke-linecap:round; stroke-linejoin:round;"
     id="g460" />
  <g
     style="fill:#000000; fill-opacity:0.0;  stroke:#000000; stroke-width:0.1000; stroke-opacity:1;  stroke-linecap:round; stroke-linejoin:round;"
     id="g674">
    <path
       d="M148.6696 21.8145 L158.8960 49.9113 "
       id="path462" />
    <path
       d="M171.5456,67.7079 C166.3773,69.5884 160.9652,71.8565 156.1399,74.5600"
       id="path464" />
    <path
       d="M34.2904,84.2926 C25.5435,82.2007 15.4974,80.8557 1.0459,80.7967"
       id="path466" />
    <path
       d="M19.0500 22.9946 A1.0000 1.0000 0.0 0 0 18.0500 23.9946"
       id="path468" />
    <path
       d="M117.2738,96.4295 C111.6079,94.5300 106.0172,93.0789 99.2666,92.3477"
       id="path470" />
    <path
       d="M153.1812 25.4386 L151.4886 20.7885 "
       id="path472" />
    <path
       d="M39.0500 10.9946 A1.0000 1.0000 0.0 0 0 38.0500 11.9946"
       id="path474" />
    <path
       d="M80.0500,91.8587 C73.4430,91.9054 68.0733,91.7227 54.7500,89.5546"
       id="path476" />
    <path
       d="M136.9296,98.5389 C136.6146,99.1403 136.2500,99.6649 135.7913,100.0816"
       id="path478" />
    <path
       d="M0.0500 79.7967 L0.0500 30.9946 "
       id="path480" />
    <path
       d="M140.0632,90.2923 C138.5137,93.6685 137.9616,96.5684 136.9296,98.5389"
       id="path482" />
    <path
       d="M39.0500 10.9946 L116.8500 10.9946 "
       id="path484" />
    <path
       d="M0.3383,80.4991 C0.4297,80.5918 0.5384,80.6657 0.6582,80.7167"
       id="path486" />
    <path
       d="M37.0500 22.9946 A1.0000 1.0000 0.0 0 0 38.0500 21.9946"
       id="path488" />
    <path
       d="M0.6582,80.7167 C0.7808,80.7689 0.9127,80.7961 1.0459,80.7967"
       id="path490" />
    <path
       d="M99.2666,92.3477 C92.2910,91.5920 86.0156,91.8166 80.0500,91.8587"
       id="path492" />
    <path
       d="M134.5036,100.8517 C133.9641,101.0431 133.3905,101.1170 132.8200,101.1225"
       id="path494" />
    <path
       d="M158.8960 49.9113 A0.5000 0.5000 0.0 0 0 159.5368 50.2102"
       id="path496" />
    <path
       d="M0.0500,79.7967 C0.0500,79.9269 0.0754,80.0559 0.1249,80.1763"
       id="path498" />
    <path
       d="M17.0500 29.9946 A1.0000 1.0000 0.0 0 0 18.0500 28.9946"
       id="path500" />
    <path
       d="M38.0500 21.9946 L38.0500 11.9946 "
       id="path502" />
    <path
       d="M18.0500 28.9946 L18.0500 23.9946 "
       id="path504" />
    <path
       d="M1.0500 29.9946 L17.0500 29.9946 "
       id="path506" />
    <path
       d="M148.9684 21.1737 A0.5001 0.5001 0.0 0 0 148.6696 21.8145"
       id="path508" />
    <path
       d="M154.4789 20.8175 L163.9871 46.9409 "
       id="path510" />
    <path
       d="M151.4886 20.7885 A0.5000 0.5000 0.0 0 0 150.8478 20.4896"
       id="path512" />
    <path
       d="M161.4074 49.5293 A0.5000 0.5000 0.0 0 0 161.7150 48.8851"
       id="path514" />
    <path
       d="M19.0500 22.9946 L37.0500 22.9946 "
       id="path516" />
    <path
       d="M132.8200,101.1225 C131.8745,101.1317 130.7955,100.9546 129.5698,100.6404"
       id="path518" />
    <path
       d="M159.5368 50.2102 L161.4074 49.5293 "
       id="path520" />
    <path
       d="M156.1399,74.5600 C152.7065,76.4837 149.3113,78.7703 146.4435,81.4941"
       id="path522" />
    <path
       d="M146.4435,81.4941 C143.1980,84.5767 141.3193,87.5553 140.0632,90.2923"
       id="path524" />
    <path
       d="M129.5698,100.6404 C126.4145,99.8315 122.3093,98.1177 117.2738,96.4295"
       id="path526" />
    <path
       d="M146.9202 0.0500 L154.4789 20.8175 "
       id="path530" />
    <path
       d="M1.0500 29.9946 A1.0000 1.0000 0.0 0 0 0.0500 30.9946"
       id="path532" />
    <path
       d="M135.7913,100.0816 C135.4119,100.4261 134.9859,100.6805 134.5036,100.8517"
       id="path536" />
    <path
       d="M116.8500 10.9946 L146.9202 0.0500 "
       id="path538" />
    <path
       d="M0.1249,80.1763 C0.1743,80.2968 0.2468,80.4064 0.3383,80.4991"
       id="path540" />
    <path
       d="M161.7150 48.8851 L153.1812 25.4386 "
       id="path542" />
    <path
       d="M163.9871 46.9409 L171.5456 67.7079 "
       id="path544" />
    <path
       d="M54.7500,89.5546 C48.3589,88.5790 42.4566,86.2456 34.2904,84.2926"
       id="path546" />
    <path
       d="M150.8478 20.4896 L148.9684 21.1737 "
       id="path548" />
    <g
       id="g550" />
    <g
       id="g552" />
    <g
       id="g554" />
    <g
       id="g556" />
    <g
       id="g558" />
    <g
       id="g560" />
    <g
       id="g562" />
    <g
       id="g564" />
    <g
       id="g566" />
    <g
       id="g568" />
    <g
       id="g570" />
    <g
       id="g572" />
    <g
       id="g574" />
    <g
       id="g576" />
    <g
       id="g578" />
    <g
       id="g580" />
    <g
       id="g582" />
    <g
       id="g584" />
    <g
       id="g586" />
    <g
       id="g588" />
    <g
       id="g590" />
    <g
       id="g592" />
    <g
       id="g594" />
    <g
       id="g596" />
    <g
       id="g598" />
    <g
       id="g600" />
    <g
       id="g602" />
    <g
       id="g604" />
    <g
       id="g606" />
    <g
       id="g608" />
    <g
       id="g610" />
    <g
       id="g612" />
    <g
       id="g614" />
    <g
       id="g616" />
    <g
       id="g618" />
    <g
       id="g620" />
    <g
       id="g622" />
    <g
       id="g624" />
    <g
       id="g626" />
    <g
       id="g628" />
    <g
       id="g630" />
    <g
       id="g632" />
    <g
       id="g634" />
    <g
       id="g636" />
    <g
       id="g638" />
    <g
       id="g640" />
    <g
       id="g642" />
    <g
       id="g644" />
    <g
       id="g646" />
    <g
       id="g648" />
    <g
       id="g650" />
    <g
       id="g652" />
    <g
       id="g654" />
    <g
       id="g656" />
    <g
       id="g658" />
    <g
       id="g660" />
    <g
       id="g662" />
    <g
       id="g664" />
    <g
       id="g666" />
    <g
       id="g668" />
    <g
       id="g670" />
    <g
       id="g672" />
  </g>
</svg>
