  0
SECTION
  2
HEADER
  9
$ACADVER
  1
AC1014
  9
$HANDSEED
  5
FFFF
  9
$INSUNITS
 70
     4
  9
$MEASUREMENT
 70
     1
  0
ENDSEC
  0
SECTION
  2
TABLES
  0
TABLE
  2
VPORT
  5
8
330
0
100
AcDbSymbolTable
 70
     4
  0
VPORT
  5
2E
330
8
100
AcDbSymbolTableRecord
100
AcDbViewportTableRecord
  2
*ACTIVE
 70
     0
 10
0.0
 20
0.0
 11
1.0
 21
1.0
 12
210.0
 22
148.5
 13
0.0
 23
0.0
 14
10.0
 24
10.0
 15
10.0
 25
10.0
 16
0.0
 26
0.0
 36
1.0
 17
0.0
 27
0.0
 37
0.0
 40
341.0
 41
1.24
 42
50.0
 43
0.0
 44
0.0
 50
0.0
 51
0.0
 71
     0
 72
   100
 73
     1
 74
     3
 75
     0
 76
     0
 77
     0
 78
     0
  0
ENDTAB
  0
TABLE
  2
LTYPE
  5
5
330
0
100
AcDbSymbolTable
 70
     1
  0
LTYPE
  5
14
330
5
100
AcDbSymbolTableRecord
100
AcDbLinetypeTableRecord
  2
BYBLOCK
 70
     0
  3

 72
    65
 73
     0
 40
0.0
  0
LTYPE
  5
15
330
5
100
AcDbSymbolTableRecord
100
AcDbLinetypeTableRecord
  2
BYLAYER
 70
     0
  3

 72
    65
 73
     0
 40
0.0
  0
LTYPE
  5
16
330
5
100
AcDbSymbolTableRecord
100
AcDbLinetypeTableRecord
  2
CONTINUOUS
 70
     0
  3
Solid line
 72
    65
 73
     0
 40
0.0
  0
ENDTAB
  0
TABLE
  2
LAYER
  5
2
100
AcDbSymbolTable
 70
1
  0
LAYER
  5
50
100
AcDbSymbolTableRecord
100
AcDbLayerTableRecord
  2
0
 70
0
  6
CONTINUOUS
  0
ENDTAB
  0
TABLE
  2
STYLE
  5
3
330
0
100
AcDbSymbolTable
 70
     1
  0
STYLE
  5
11
330
3
100
AcDbSymbolTableRecord
100
AcDbTextStyleTableRecord
  2
STANDARD
 70
     0
 40
0.0
 41
1.0
 50
0.0
 71
     0
 42
2.5
  3
txt
  4

  0
ENDTAB
  0
TABLE
  2
VIEW
  5
6
330
0
100
AcDbSymbolTable
 70
     0
  0
ENDTAB
  0
TABLE
  2
UCS
  5
7
330
0
100
AcDbSymbolTable
 70
     0
  0
ENDTAB
  0
TABLE
  2
APPID
  5
9
330
0
100
AcDbSymbolTable
 70
     2
  0
APPID
  5
12
330
9
100
AcDbSymbolTableRecord
100
AcDbRegAppTableRecord
  2
ACAD
 70
     0
  0
ENDTAB
  0
TABLE
  2
DIMSTYLE
  5
A
330
0
100
AcDbSymbolTable
 70
     1
  0
DIMSTYLE
105
27
330
A
100
AcDbSymbolTableRecord
100
AcDbDimStyleTableRecord
  2
ISO-25
 70
     0
  3

  4

  5

  6

  7

 40
1.0
 41
2.5
 42
0.625
 43
3.75
 44
1.25
 45
0.0
 46
0.0
 47
0.0
 48
0.0
140
2.5
141
2.5
142
0.0
143
0.03937007874016
144
1.0
145
0.0
146
1.0
147
0.625
 71
     0
 72
     0
 73
     0
 74
     0
 75
     0
 76
     0
 77
     1
 78
     8
170
     0
171
     3
172
     1
173
     0
174
     0
175
     0
176
     0
177
     0
178
     0
270
     2
271
     2
272
     2
273
     2
274
     3
340
11
275
     0
280
     0
281
     0
282
     0
283
     0
284
     8
285
     0
286
     0
287
     3
288
     0
  0
ENDTAB
  0
TABLE
  2
BLOCK_RECORD
  5
1
330
0
100
AcDbSymbolTable
 70
     1
  0
BLOCK_RECORD
  5
1F
330
1
100
AcDbSymbolTableRecord
100
AcDbBlockTableRecord
  2
*MODEL_SPACE
  0
BLOCK_RECORD
  5
1B
330
1
100
AcDbSymbolTableRecord
100
AcDbBlockTableRecord
  2
*PAPER_SPACE
  0
ENDTAB
  0
ENDSEC
  0
SECTION
  2
BLOCKS
  0
BLOCK
  5
20
330
1F
100
AcDbEntity
  8
0
100
AcDbBlockBegin
  2
*MODEL_SPACE
 70
     0
 10
0.0
 20
0.0
 30
0.0
  3
*MODEL_SPACE
  1

  0
ENDBLK
  5
21
330
1F
100
AcDbEntity
  8
0
100
AcDbBlockEnd
  0
BLOCK
  5
1C
330
1B
100
AcDbEntity
 67
     1
  8
0
100
AcDbBlockBegin
  2
*PAPER_SPACE
  1

  0
ENDBLK
  5
1D
330
1B
100
AcDbEntity
 67
     1
  8
0
100
AcDbBlockEnd
  0
ENDSEC
  0
SECTION
  2
ENTITIES
  0
LWPOLYLINE
  5
100
100
AcDbEntity
  8
0
 62
7
100
AcDbPolyline
 90
2
 70
0
 10
104.112300
 20
27.108800
 30
0.0
 10
117.899700
 20
24.677800
 30
0.0
  0
LWPOLYLINE
  5
101
100
AcDbEntity
  8
0
 62
7
100
AcDbPolyline
 90
2
 70
0
 10
101.681300
 20
13.321500
 30
0.0
 10
104.112300
 20
27.108800
 30
0.0
  0
LWPOLYLINE
  5
102
100
AcDbEntity
  8
0
 62
7
100
AcDbPolyline
 90
3
 70
0
 10
117.899700
 20
24.677800
 30
0.0
 10
115.468600
 20
10.890500
 30
0.0
 10
101.681300
 20
13.321500
 30
0.0
  0
LWPOLYLINE
  5
103
100
AcDbEntity
  8
0
 62
7
100
AcDbPolyline
 90
2
 70
0
 10
4.450000
 20
45.773600
 30
0.0
 10
18.450000
 20
45.773600
 30
0.0
  0
LWPOLYLINE
  5
104
100
AcDbEntity
  8
0
 62
7
100
AcDbPolyline
 90
2
 70
0
 10
4.450000
 20
31.773600
 30
0.0
 10
4.450000
 20
45.773600
 30
0.0
  0
LWPOLYLINE
  5
105
100
AcDbEntity
  8
0
 62
7
100
AcDbPolyline
 90
3
 70
0
 10
18.450000
 20
45.773600
 30
0.0
 10
18.450000
 20
31.773600
 30
0.0
 10
4.450000
 20
31.773600
 30
0.0
  0
LWPOLYLINE
  5
106
100
AcDbEntity
  8
0
 62
7
100
AcDbPolyline
 90
2
 70
0
 10
23.450000
 20
37.773600
 30
0.0
 10
37.450000
 20
37.773600
 30
0.0
  0
LWPOLYLINE
  5
107
100
AcDbEntity
  8
0
 62
7
100
AcDbPolyline
 90
2
 70
0
 10
23.450000
 20
23.773600
 30
0.0
 10
23.450000
 20
37.773600
 30
0.0
  0
LWPOLYLINE
  5
108
100
AcDbEntity
  8
0
 62
7
100
AcDbPolyline
 90
3
 70
0
 10
37.450000
 20
37.773600
 30
0.0
 10
37.450000
 20
23.773600
 30
0.0
 10
23.450000
 20
23.773600
 30
0.0
  0
LWPOLYLINE
  5
109
100
AcDbEntity
  8
0
 62
7
100
AcDbPolyline
 90
2
 70
0
 10
80.450000
 20
81.273600
 30
0.0
 10
94.450000
 20
81.273600
 30
0.0
  0
LWPOLYLINE
  5
10a
100
AcDbEntity
  8
0
 62
7
100
AcDbPolyline
 90
2
 70
0
 10
80.450000
 20
67.273600
 30
0.0
 10
80.450000
 20
81.273600
 30
0.0
  0
LWPOLYLINE
  5
10b
100
AcDbEntity
  8
0
 62
7
100
AcDbPolyline
 90
3
 70
0
 10
94.450000
 20
81.273600
 30
0.0
 10
94.450000
 20
67.273600
 30
0.0
 10
80.450000
 20
67.273600
 30
0.0
  0
LWPOLYLINE
  5
10c
100
AcDbEntity
  8
0
 62
7
100
AcDbPolyline
 90
2
 70
0
 10
42.450000
 20
81.273600
 30
0.0
 10
56.450000
 20
81.273600
 30
0.0
  0
LWPOLYLINE
  5
10d
100
AcDbEntity
  8
0
 62
7
100
AcDbPolyline
 90
2
 70
0
 10
42.450000
 20
67.273600
 30
0.0
 10
42.450000
 20
81.273600
 30
0.0
  0
LWPOLYLINE
  5
10e
100
AcDbEntity
  8
0
 62
7
100
AcDbPolyline
 90
3
 70
0
 10
56.450000
 20
81.273600
 30
0.0
 10
56.450000
 20
67.273600
 30
0.0
 10
42.450000
 20
67.273600
 30
0.0
  0
LWPOLYLINE
  5
10f
100
AcDbEntity
  8
0
 62
7
100
AcDbPolyline
 90
2
 70
0
 10
61.450000
 20
54.273600
 30
0.0
 10
75.450000
 20
54.273600
 30
0.0
  0
LWPOLYLINE
  5
110
100
AcDbEntity
  8
0
 62
7
100
AcDbPolyline
 90
2
 70
0
 10
61.450000
 20
40.273600
 30
0.0
 10
61.450000
 20
54.273600
 30
0.0
  0
LWPOLYLINE
  5
111
100
AcDbEntity
  8
0
 62
7
100
AcDbPolyline
 90
3
 70
0
 10
75.450000
 20
54.273600
 30
0.0
 10
75.450000
 20
40.273600
 30
0.0
 10
61.450000
 20
40.273600
 30
0.0
  0
LWPOLYLINE
  5
112
100
AcDbEntity
  8
0
 62
7
100
AcDbPolyline
 90
2
 70
0
 10
61.450000
 20
86.273600
 30
0.0
 10
75.450000
 20
86.273600
 30
0.0
  0
LWPOLYLINE
  5
113
100
AcDbEntity
  8
0
 62
7
100
AcDbPolyline
 90
2
 70
0
 10
61.450000
 20
72.273600
 30
0.0
 10
61.450000
 20
86.273600
 30
0.0
  0
LWPOLYLINE
  5
114
100
AcDbEntity
  8
0
 62
7
100
AcDbPolyline
 90
3
 70
0
 10
75.450000
 20
86.273600
 30
0.0
 10
75.450000
 20
72.273600
 30
0.0
 10
61.450000
 20
72.273600
 30
0.0
  0
LWPOLYLINE
  5
115
100
AcDbEntity
  8
0
 62
7
100
AcDbPolyline
 90
2
 70
0
 10
99.450000
 20
46.773600
 30
0.0
 10
113.450000
 20
46.773600
 30
0.0
  0
LWPOLYLINE
  5
116
100
AcDbEntity
  8
0
 62
7
100
AcDbPolyline
 90
2
 70
0
 10
99.450000
 20
32.773600
 30
0.0
 10
99.450000
 20
46.773600
 30
0.0
  0
LWPOLYLINE
  5
117
100
AcDbEntity
  8
0
 62
7
100
AcDbPolyline
 90
3
 70
0
 10
113.450000
 20
46.773600
 30
0.0
 10
113.450000
 20
32.773600
 30
0.0
 10
99.450000
 20
32.773600
 30
0.0
  0
LWPOLYLINE
  5
118
100
AcDbEntity
  8
0
 62
7
100
AcDbPolyline
 90
2
 70
0
 10
4.450000
 20
61.773600
 30
0.0
 10
18.450000
 20
61.773600
 30
0.0
  0
LWPOLYLINE
  5
119
100
AcDbEntity
  8
0
 62
7
100
AcDbPolyline
 90
2
 70
0
 10
4.450000
 20
47.773600
 30
0.0
 10
4.450000
 20
61.773600
 30
0.0
  0
LWPOLYLINE
  5
11a
100
AcDbEntity
  8
0
 62
7
100
AcDbPolyline
 90
3
 70
0
 10
18.450000
 20
61.773600
 30
0.0
 10
18.450000
 20
47.773600
 30
0.0
 10
4.450000
 20
47.773600
 30
0.0
  0
LWPOLYLINE
  5
11b
100
AcDbEntity
  8
0
 62
7
100
AcDbPolyline
 90
2
 70
0
 10
80.450000
 20
49.273600
 30
0.0
 10
94.450000
 20
49.273600
 30
0.0
  0
LWPOLYLINE
  5
11c
100
AcDbEntity
  8
0
 62
7
100
AcDbPolyline
 90
2
 70
0
 10
80.450000
 20
35.273600
 30
0.0
 10
80.450000
 20
49.273600
 30
0.0
  0
LWPOLYLINE
  5
11d
100
AcDbEntity
  8
0
 62
7
100
AcDbPolyline
 90
3
 70
0
 10
94.450000
 20
49.273600
 30
0.0
 10
94.450000
 20
35.273600
 30
0.0
 10
80.450000
 20
35.273600
 30
0.0
  0
LWPOLYLINE
  5
11e
100
AcDbEntity
  8
0
 62
7
100
AcDbPolyline
 90
2
 70
0
 10
80.450000
 20
65.273600
 30
0.0
 10
94.450000
 20
65.273600
 30
0.0
  0
LWPOLYLINE
  5
11f
100
AcDbEntity
  8
0
 62
7
100
AcDbPolyline
 90
2
 70
0
 10
80.450000
 20
51.273600
 30
0.0
 10
80.450000
 20
65.273600
 30
0.0
  0
LWPOLYLINE
  5
120
100
AcDbEntity
  8
0
 62
7
100
AcDbPolyline
 90
3
 70
0
 10
94.450000
 20
65.273600
 30
0.0
 10
94.450000
 20
51.273600
 30
0.0
 10
80.450000
 20
51.273600
 30
0.0
  0
LWPOLYLINE
  5
121
100
AcDbEntity
  8
0
 62
7
100
AcDbPolyline
 90
2
 70
0
 10
125.384800
 20
22.609200
 30
0.0
 10
138.540500
 20
17.820900
 30
0.0
  0
LWPOLYLINE
  5
122
100
AcDbEntity
  8
0
 62
7
100
AcDbPolyline
 90
2
 70
0
 10
120.596500
 20
9.453500
 30
0.0
 10
125.384800
 20
22.609200
 30
0.0
  0
LWPOLYLINE
  5
123
100
AcDbEntity
  8
0
 62
7
100
AcDbPolyline
 90
3
 70
0
 10
138.540500
 20
17.820900
 30
0.0
 10
133.752200
 20
4.665200
 30
0.0
 10
120.596500
 20
9.453500
 30
0.0
  0
LWPOLYLINE
  5
124
100
AcDbEntity
  8
0
 62
7
100
AcDbPolyline
 90
2
 70
0
 10
23.450000
 20
53.773600
 30
0.0
 10
37.450000
 20
53.773600
 30
0.0
  0
LWPOLYLINE
  5
125
100
AcDbEntity
  8
0
 62
7
100
AcDbPolyline
 90
2
 70
0
 10
23.450000
 20
39.773600
 30
0.0
 10
23.450000
 20
53.773600
 30
0.0
  0
LWPOLYLINE
  5
126
100
AcDbEntity
  8
0
 62
7
100
AcDbPolyline
 90
3
 70
0
 10
37.450000
 20
53.773600
 30
0.0
 10
37.450000
 20
39.773600
 30
0.0
 10
23.450000
 20
39.773600
 30
0.0
  0
LWPOLYLINE
  5
127
100
AcDbEntity
  8
0
 62
7
100
AcDbPolyline
 90
2
 70
0
 10
99.450000
 20
78.773600
 30
0.0
 10
113.450000
 20
78.773600
 30
0.0
  0
LWPOLYLINE
  5
128
100
AcDbEntity
  8
0
 62
7
100
AcDbPolyline
 90
2
 70
0
 10
99.450000
 20
64.773600
 30
0.0
 10
99.450000
 20
78.773600
 30
0.0
  0
LWPOLYLINE
  5
129
100
AcDbEntity
  8
0
 62
7
100
AcDbPolyline
 90
3
 70
0
 10
113.450000
 20
78.773600
 30
0.0
 10
113.450000
 20
64.773600
 30
0.0
 10
99.450000
 20
64.773600
 30
0.0
  0
LWPOLYLINE
  5
12a
100
AcDbEntity
  8
0
 62
7
100
AcDbPolyline
 90
2
 70
0
 10
82.450000
 20
27.773600
 30
0.0
 10
96.450000
 20
27.773600
 30
0.0
  0
LWPOLYLINE
  5
12b
100
AcDbEntity
  8
0
 62
7
100
AcDbPolyline
 90
2
 70
0
 10
82.450000
 20
13.773600
 30
0.0
 10
82.450000
 20
27.773600
 30
0.0
  0
LWPOLYLINE
  5
12c
100
AcDbEntity
  8
0
 62
7
100
AcDbPolyline
 90
3
 70
0
 10
96.450000
 20
27.773600
 30
0.0
 10
96.450000
 20
13.773600
 30
0.0
 10
82.450000
 20
13.773600
 30
0.0
  0
LWPOLYLINE
  5
12d
100
AcDbEntity
  8
0
 62
7
100
AcDbPolyline
 90
2
 70
0
 10
99.450000
 20
62.773600
 30
0.0
 10
113.450000
 20
62.773600
 30
0.0
  0
LWPOLYLINE
  5
12e
100
AcDbEntity
  8
0
 62
7
100
AcDbPolyline
 90
2
 70
0
 10
99.450000
 20
48.773600
 30
0.0
 10
99.450000
 20
62.773600
 30
0.0
  0
LWPOLYLINE
  5
12f
100
AcDbEntity
  8
0
 62
7
100
AcDbPolyline
 90
3
 70
0
 10
113.450000
 20
62.773600
 30
0.0
 10
113.450000
 20
48.773600
 30
0.0
 10
99.450000
 20
48.773600
 30
0.0
  0
LWPOLYLINE
  5
130
100
AcDbEntity
  8
0
 62
7
100
AcDbPolyline
 90
2
 70
0
 10
23.450000
 20
69.773600
 30
0.0
 10
37.450000
 20
69.773600
 30
0.0
  0
LWPOLYLINE
  5
131
100
AcDbEntity
  8
0
 62
7
100
AcDbPolyline
 90
2
 70
0
 10
23.450000
 20
55.773600
 30
0.0
 10
23.450000
 20
69.773600
 30
0.0
  0
LWPOLYLINE
  5
132
100
AcDbEntity
  8
0
 62
7
100
AcDbPolyline
 90
3
 70
0
 10
37.450000
 20
69.773600
 30
0.0
 10
37.450000
 20
55.773600
 30
0.0
 10
23.450000
 20
55.773600
 30
0.0
  0
LWPOLYLINE
  5
133
100
AcDbEntity
  8
0
 62
7
100
AcDbPolyline
 90
2
 70
0
 10
42.450000
 20
49.273600
 30
0.0
 10
56.450000
 20
49.273600
 30
0.0
  0
LWPOLYLINE
  5
134
100
AcDbEntity
  8
0
 62
7
100
AcDbPolyline
 90
2
 70
0
 10
42.450000
 20
35.273600
 30
0.0
 10
42.450000
 20
49.273600
 30
0.0
  0
LWPOLYLINE
  5
135
100
AcDbEntity
  8
0
 62
7
100
AcDbPolyline
 90
3
 70
0
 10
56.450000
 20
49.273600
 30
0.0
 10
56.450000
 20
35.273600
 30
0.0
 10
42.450000
 20
35.273600
 30
0.0
  0
LWPOLYLINE
  5
136
100
AcDbEntity
  8
0
 62
7
100
AcDbPolyline
 90
2
 70
0
 10
42.450000
 20
65.273600
 30
0.0
 10
56.450000
 20
65.273600
 30
0.0
  0
LWPOLYLINE
  5
137
100
AcDbEntity
  8
0
 62
7
100
AcDbPolyline
 90
2
 70
0
 10
42.450000
 20
51.273600
 30
0.0
 10
42.450000
 20
65.273600
 30
0.0
  0
LWPOLYLINE
  5
138
100
AcDbEntity
  8
0
 62
7
100
AcDbPolyline
 90
3
 70
0
 10
56.450000
 20
65.273600
 30
0.0
 10
56.450000
 20
51.273600
 30
0.0
 10
42.450000
 20
51.273600
 30
0.0
  0
LWPOLYLINE
  5
139
100
AcDbEntity
  8
0
 62
7
100
AcDbPolyline
 90
2
 70
0
 10
61.450000
 20
70.273600
 30
0.0
 10
75.450000
 20
70.273600
 30
0.0
  0
LWPOLYLINE
  5
13a
100
AcDbEntity
  8
0
 62
7
100
AcDbPolyline
 90
2
 70
0
 10
61.450000
 20
56.273600
 30
0.0
 10
61.450000
 20
70.273600
 30
0.0
  0
SPLINE
  5
13b
100
AcDbEntity
  8
0
 62
7
100
AcDbSpline
 70
8
 71
3
 72
8
 73
4
 74
0
 40
0
 40
0
 40
0
 40
0
 40
1
 40
1
 40
1
 40
1
 10
68.450000
 20
30.773600
 30
0.0
 10
64.405378
 20
30.773600
 30
0.0
 10
60.759015
 20
28.337178
 30
0.0
 10
59.211205
 20
24.600434
 30
0.0
  0
SPLINE
  5
13c
100
AcDbEntity
  8
0
 62
7
100
AcDbSpline
 70
8
 71
3
 72
8
 73
4
 74
0
 40
0
 40
0
 40
0
 40
0
 40
1
 40
1
 40
1
 40
1
 10
59.211205
 20
24.600434
 30
0.0
 10
57.663395
 20
20.863690
 30
0.0
 10
58.518952
 20
16.562512
 30
0.0
 10
61.378932
 20
13.702532
 30
0.0
  0
SPLINE
  5
13d
100
AcDbEntity
  8
0
 62
7
100
AcDbSpline
 70
8
 71
3
 72
8
 73
4
 74
0
 40
0
 40
0
 40
0
 40
0
 40
1
 40
1
 40
1
 40
1
 10
61.378932
 20
13.702532
 30
0.0
 10
64.238912
 20
10.842552
 30
0.0
 10
68.540090
 20
9.986995
 30
0.0
 10
72.276834
 20
11.534805
 30
0.0
  0
SPLINE
  5
13e
100
AcDbEntity
  8
0
 62
7
100
AcDbSpline
 70
8
 71
3
 72
8
 73
4
 74
0
 40
0
 40
0
 40
0
 40
0
 40
1
 40
1
 40
1
 40
1
 10
72.276834
 20
11.534805
 30
0.0
 10
76.013578
 20
13.082615
 30
0.0
 10
78.450000
 20
16.728978
 30
0.0
 10
78.450000
 20
20.773600
 30
0.0
  0
SPLINE
  5
13f
100
AcDbEntity
  8
0
 62
7
100
AcDbSpline
 70
8
 71
3
 72
8
 73
4
 74
0
 40
0
 40
0
 40
0
 40
0
 40
1
 40
1
 40
1
 40
1
 10
78.450000
 20
20.773600
 30
0.0
 10
78.450000
 20
23.425765
 30
0.0
 10
77.396432
 20
25.969304
 30
0.0
 10
75.521068
 20
27.844668
 30
0.0
  0
SPLINE
  5
140
100
AcDbEntity
  8
0
 62
7
100
AcDbSpline
 70
8
 71
3
 72
8
 73
4
 74
0
 40
0
 40
0
 40
0
 40
0
 40
1
 40
1
 40
1
 40
1
 10
75.521068
 20
27.844668
 30
0.0
 10
73.645704
 20
29.720032
 30
0.0
 10
71.102165
 20
30.773600
 30
0.0
 10
68.450000
 20
30.773600
 30
0.0
  0
LWPOLYLINE
  5
141
100
AcDbEntity
  8
0
 62
7
100
AcDbPolyline
 90
3
 70
0
 10
75.450000
 20
70.273600
 30
0.0
 10
75.450000
 20
56.273600
 30
0.0
 10
61.450000
 20
56.273600
 30
0.0
  0
LWPOLYLINE
  5
142
100
AcDbEntity
  8
0
 62
7
100
AcDbPolyline
 90
1
 70
1
 10
68.450000
 20
30.773600
 30
0.0
  0
SPLINE
  5
143
100
AcDbEntity
  8
0
 62
7
100
AcDbSpline
 70
8
 71
3
 72
8
 73
4
 74
0
 40
0
 40
0
 40
0
 40
0
 40
1
 40
1
 40
1
 40
1
 10
171.545600
 20
33.460300
 30
0.0
 10
166.377300
 20
31.579800
 30
0.0
 10
160.965200
 20
29.311700
 30
0.0
 10
156.139900
 20
26.608200
 30
0.0
  0
SPLINE
  5
144
100
AcDbEntity
  8
0
 62
7
100
AcDbSpline
 70
8
 71
3
 72
8
 73
4
 74
0
 40
0
 40
0
 40
0
 40
0
 40
1
 40
1
 40
1
 40
1
 10
34.290400
 20
16.875600
 30
0.0
 10
25.543500
 20
18.967500
 30
0.0
 10
15.497400
 20
20.312500
 30
0.0
 10
1.045900
 20
20.371500
 30
0.0
  0
SPLINE
  5
145
100
AcDbEntity
  8
0
 62
7
100
AcDbSpline
 70
8
 71
3
 72
8
 73
4
 74
0
 40
0
 40
0
 40
0
 40
0
 40
1
 40
1
 40
1
 40
1
 10
19.050000
 20
78.173600
 30
0.0
 10
18.784784
 20
78.173600
 30
0.0
 10
18.530430
 20
78.068243
 30
0.0
 10
18.342893
 20
77.880707
 30
0.0
  0
SPLINE
  5
146
100
AcDbEntity
  8
0
 62
7
100
AcDbSpline
 70
8
 71
3
 72
8
 73
4
 74
0
 40
0
 40
0
 40
0
 40
0
 40
1
 40
1
 40
1
 40
1
 10
18.342893
 20
77.880707
 30
0.0
 10
18.155357
 20
77.693170
 30
0.0
 10
18.050000
 20
77.438816
 30
0.0
 10
18.050000
 20
77.173600
 30
0.0
  0
SPLINE
  5
147
100
AcDbEntity
  8
0
 62
7
100
AcDbSpline
 70
8
 71
3
 72
8
 73
4
 74
0
 40
0
 40
0
 40
0
 40
0
 40
1
 40
1
 40
1
 40
1
 10
117.273800
 20
4.738700
 30
0.0
 10
111.607900
 20
6.638200
 30
0.0
 10
106.017200
 20
8.089300
 30
0.0
 10
99.266600
 20
8.820500
 30
0.0
  0
LWPOLYLINE
  5
148
100
AcDbEntity
  8
0
 62
7
100
AcDbPolyline
 90
2
 70
0
 10
148.669600
 20
79.353700
 30
0.0
 10
158.896000
 20
51.256900
 30
0.0
  0
SPLINE
  5
149
100
AcDbEntity
  8
0
 62
7
100
AcDbSpline
 70
8
 71
3
 72
8
 73
4
 74
0
 40
0
 40
0
 40
0
 40
0
 40
1
 40
1
 40
1
 40
1
 10
39.050000
 20
90.173600
 30
0.0
 10
38.784784
 20
90.173600
 30
0.0
 10
38.530430
 20
90.068243
 30
0.0
 10
38.342893
 20
89.880707
 30
0.0
  0
SPLINE
  5
14a
100
AcDbEntity
  8
0
 62
7
100
AcDbSpline
 70
8
 71
3
 72
8
 73
4
 74
0
 40
0
 40
0
 40
0
 40
0
 40
1
 40
1
 40
1
 40
1
 10
38.342893
 20
89.880707
 30
0.0
 10
38.155357
 20
89.693170
 30
0.0
 10
38.050000
 20
89.438816
 30
0.0
 10
38.050000
 20
89.173600
 30
0.0
  0
SPLINE
  5
14b
100
AcDbEntity
  8
0
 62
7
100
AcDbSpline
 70
8
 71
3
 72
8
 73
4
 74
0
 40
0
 40
0
 40
0
 40
0
 40
1
 40
1
 40
1
 40
1
 10
80.050000
 20
9.309500
 30
0.0
 10
73.443000
 20
9.262800
 30
0.0
 10
68.073300
 20
9.445500
 30
0.0
 10
54.750000
 20
11.613600
 30
0.0
  0
SPLINE
  5
14c
100
AcDbEntity
  8
0
 62
7
100
AcDbSpline
 70
8
 71
3
 72
8
 73
4
 74
0
 40
0
 40
0
 40
0
 40
0
 40
1
 40
1
 40
1
 40
1
 10
136.929600
 20
2.629300
 30
0.0
 10
136.614600
 20
2.027900
 30
0.0
 10
136.250000
 20
1.503300
 30
0.0
 10
135.791300
 20
1.086600
 30
0.0
  0
LWPOLYLINE
  5
14d
100
AcDbEntity
  8
0
 62
7
100
AcDbPolyline
 90
2
 70
0
 10
153.181200
 20
75.729600
 30
0.0
 10
151.488600
 20
80.379700
 30
0.0
  0
SPLINE
  5
14e
100
AcDbEntity
  8
0
 62
7
100
AcDbSpline
 70
8
 71
3
 72
8
 73
4
 74
0
 40
0
 40
0
 40
0
 40
0
 40
1
 40
1
 40
1
 40
1
 10
140.063200
 20
10.875900
 30
0.0
 10
138.513700
 20
7.499700
 30
0.0
 10
137.961600
 20
4.599800
 30
0.0
 10
136.929600
 20
2.629300
 30
0.0
  0
LWPOLYLINE
  5
14f
100
AcDbEntity
  8
0
 62
7
100
AcDbPolyline
 90
2
 70
0
 10
0.050000
 20
21.371500
 30
0.0
 10
0.050000
 20
70.173600
 30
0.0
  0
SPLINE
  5
150
100
AcDbEntity
  8
0
 62
7
100
AcDbSpline
 70
8
 71
3
 72
8
 73
4
 74
0
 40
0
 40
0
 40
0
 40
0
 40
1
 40
1
 40
1
 40
1
 10
0.338300
 20
20.669100
 30
0.0
 10
0.429700
 20
20.576400
 30
0.0
 10
0.538400
 20
20.502500
 30
0.0
 10
0.658200
 20
20.451500
 30
0.0
  0
SPLINE
  5
151
100
AcDbEntity
  8
0
 62
7
100
AcDbSpline
 70
8
 71
3
 72
8
 73
4
 74
0
 40
0
 40
0
 40
0
 40
0
 40
1
 40
1
 40
1
 40
1
 10
37.050000
 20
78.173600
 30
0.0
 10
37.315216
 20
78.173600
 30
0.0
 10
37.569570
 20
78.278957
 30
0.0
 10
37.757107
 20
78.466493
 30
0.0
  0
SPLINE
  5
152
100
AcDbEntity
  8
0
 62
7
100
AcDbSpline
 70
8
 71
3
 72
8
 73
4
 74
0
 40
0
 40
0
 40
0
 40
0
 40
1
 40
1
 40
1
 40
1
 10
37.757107
 20
78.466493
 30
0.0
 10
37.944643
 20
78.654030
 30
0.0
 10
38.050000
 20
78.908384
 30
0.0
 10
38.050000
 20
79.173600
 30
0.0
  0
SPLINE
  5
153
100
AcDbEntity
  8
0
 62
7
100
AcDbSpline
 70
8
 71
3
 72
8
 73
4
 74
0
 40
0
 40
0
 40
0
 40
0
 40
1
 40
1
 40
1
 40
1
 10
0.658200
 20
20.451500
 30
0.0
 10
0.780800
 20
20.399300
 30
0.0
 10
0.912700
 20
20.372100
 30
0.0
 10
1.045900
 20
20.371500
 30
0.0
  0
SPLINE
  5
154
100
AcDbEntity
  8
0
 62
7
100
AcDbSpline
 70
8
 71
3
 72
8
 73
4
 74
0
 40
0
 40
0
 40
0
 40
0
 40
1
 40
1
 40
1
 40
1
 10
99.266600
 20
8.820500
 30
0.0
 10
92.291000
 20
9.576200
 30
0.0
 10
86.015600
 20
9.351600
 30
0.0
 10
80.050000
 20
9.309500
 30
0.0
  0
SPLINE
  5
155
100
AcDbEntity
  8
0
 62
7
100
AcDbSpline
 70
8
 71
3
 72
8
 73
4
 74
0
 40
0
 40
0
 40
0
 40
0
 40
1
 40
1
 40
1
 40
1
 10
134.503600
 20
0.316500
 30
0.0
 10
133.964100
 20
0.125100
 30
0.0
 10
133.390500
 20
0.051200
 30
0.0
 10
132.820000
 20
0.045700
 30
0.0
  0
SPLINE
  5
156
100
AcDbEntity
  8
0
 62
7
100
AcDbSpline
 70
8
 71
3
 72
8
 73
4
 74
0
 40
0
 40
0
 40
0
 40
0
 40
1
 40
1
 40
1
 40
1
 10
158.896000
 20
51.256900
 30
0.0
 10
158.990421
 20
50.997416
 30
0.0
 10
159.277309
 20
50.863597
 30
0.0
 10
159.536800
 20
50.958000
 30
0.0
  0
SPLINE
  5
157
100
AcDbEntity
  8
0
 62
7
100
AcDbSpline
 70
8
 71
3
 72
8
 73
4
 74
0
 40
0
 40
0
 40
0
 40
0
 40
1
 40
1
 40
1
 40
1
 10
0.050000
 20
21.371500
 30
0.0
 10
0.050000
 20
21.241300
 30
0.0
 10
0.075400
 20
21.112300
 30
0.0
 10
0.124900
 20
20.991900
 30
0.0
  0
SPLINE
  5
158
100
AcDbEntity
  8
0
 62
7
100
AcDbSpline
 70
8
 71
3
 72
8
 73
4
 74
0
 40
0
 40
0
 40
0
 40
0
 40
1
 40
1
 40
1
 40
1
 10
17.050000
 20
71.173600
 30
0.0
 10
17.315216
 20
71.173600
 30
0.0
 10
17.569570
 20
71.278957
 30
0.0
 10
17.757107
 20
71.466493
 30
0.0
  0
SPLINE
  5
159
100
AcDbEntity
  8
0
 62
7
100
AcDbSpline
 70
8
 71
3
 72
8
 73
4
 74
0
 40
0
 40
0
 40
0
 40
0
 40
1
 40
1
 40
1
 40
1
 10
17.757107
 20
71.466493
 30
0.0
 10
17.944643
 20
71.654030
 30
0.0
 10
18.050000
 20
71.908384
 30
0.0
 10
18.050000
 20
72.173600
 30
0.0
  0
LWPOLYLINE
  5
15a
100
AcDbEntity
  8
0
 62
7
100
AcDbPolyline
 90
2
 70
0
 10
39.050000
 20
90.173600
 30
0.0
 10
116.850000
 20
90.173600
 30
0.0
  0
LWPOLYLINE
  5
15b
100
AcDbEntity
  8
0
 62
7
100
AcDbPolyline
 90
2
 70
0
 10
38.050000
 20
79.173600
 30
0.0
 10
38.050000
 20
89.173600
 30
0.0
  0
LWPOLYLINE
  5
15c
100
AcDbEntity
  8
0
 62
7
100
AcDbPolyline
 90
2
 70
0
 10
18.050000
 20
72.173600
 30
0.0
 10
18.050000
 20
77.173600
 30
0.0
  0
SPLINE
  5
15d
100
AcDbEntity
  8
0
 62
7
100
AcDbSpline
 70
8
 71
3
 72
8
 73
4
 74
0
 40
0
 40
0
 40
0
 40
0
 40
1
 40
1
 40
1
 40
1
 10
148.968400
 20
79.994500
 30
0.0
 10
148.708996
 20
79.899995
 30
0.0
 10
148.575247
 20
79.613160
 30
0.0
 10
148.669600
 20
79.353700
 30
0.0
  0
LWPOLYLINE
  5
15e
100
AcDbEntity
  8
0
 62
7
100
AcDbPolyline
 90
2
 70
0
 10
1.050000
 20
71.173600
 30
0.0
 10
17.050000
 20
71.173600
 30
0.0
  0
SPLINE
  5
15f
100
AcDbEntity
  8
0
 62
7
100
AcDbSpline
 70
8
 71
3
 72
8
 73
4
 74
0
 40
0
 40
0
 40
0
 40
0
 40
1
 40
1
 40
1
 40
1
 10
151.488600
 20
80.379700
 30
0.0
 10
151.394179
 20
80.639184
 30
0.0
 10
151.107291
 20
80.773003
 30
0.0
 10
150.847800
 20
80.678600
 30
0.0
  0
SPLINE
  5
160
100
AcDbEntity
  8
0
 62
7
100
AcDbSpline
 70
8
 71
3
 72
8
 73
4
 74
0
 40
0
 40
0
 40
0
 40
0
 40
1
 40
1
 40
1
 40
1
 10
161.407400
 20
51.638900
 30
0.0
 10
161.534416
 20
51.682450
 30
0.0
 10
161.638578
 20
51.775256
 30
0.0
 10
161.696435
 20
51.896426
 30
0.0
  0
SPLINE
  5
161
100
AcDbEntity
  8
0
 62
7
100
AcDbSpline
 70
8
 71
3
 72
8
 73
4
 74
0
 40
0
 40
0
 40
0
 40
0
 40
1
 40
1
 40
1
 40
1
 10
161.696435
 20
51.896426
 30
0.0
 10
161.754293
 20
52.017596
 30
0.0
 10
161.760983
 20
52.156945
 30
0.0
 10
161.715000
 20
52.283100
 30
0.0
  0
LWPOLYLINE
  5
162
100
AcDbEntity
  8
0
 62
7
100
AcDbPolyline
 90
2
 70
0
 10
154.478900
 20
80.350700
 30
0.0
 10
163.987100
 20
54.227300
 30
0.0
  0
SPLINE
  5
163
100
AcDbEntity
  8
0
 62
7
100
AcDbSpline
 70
8
 71
3
 72
8
 73
4
 74
0
 40
0
 40
0
 40
0
 40
0
 40
1
 40
1
 40
1
 40
1
 10
132.820000
 20
0.045700
 30
0.0
 10
131.874500
 20
0.036500
 30
0.0
 10
130.795500
 20
0.213600
 30
0.0
 10
129.569800
 20
0.527800
 30
0.0
  0
LWPOLYLINE
  5
164
100
AcDbEntity
  8
0
 62
7
100
AcDbPolyline
 90
2
 70
0
 10
19.050000
 20
78.173600
 30
0.0
 10
37.050000
 20
78.173600
 30
0.0
  0
SPLINE
  5
165
100
AcDbEntity
  8
0
 62
7
100
AcDbSpline
 70
8
 71
3
 72
8
 73
4
 74
0
 40
0
 40
0
 40
0
 40
0
 40
1
 40
1
 40
1
 40
1
 10
156.139900
 20
26.608200
 30
0.0
 10
152.706500
 20
24.684500
 30
0.0
 10
149.311300
 20
22.397900
 30
0.0
 10
146.443500
 20
19.674100
 30
0.0
  0
SPLINE
  5
166
100
AcDbEntity
  8
0
 62
7
100
AcDbSpline
 70
8
 71
3
 72
8
 73
4
 74
0
 40
0
 40
0
 40
0
 40
0
 40
1
 40
1
 40
1
 40
1
 10
146.443500
 20
19.674100
 30
0.0
 10
143.198000
 20
16.591500
 30
0.0
 10
141.319300
 20
13.612900
 30
0.0
 10
140.063200
 20
10.875900
 30
0.0
  0
SPLINE
  5
167
100
AcDbEntity
  8
0
 62
7
100
AcDbSpline
 70
8
 71
3
 72
8
 73
4
 74
0
 40
0
 40
0
 40
0
 40
0
 40
1
 40
1
 40
1
 40
1
 10
129.569800
 20
0.527800
 30
0.0
 10
126.414500
 20
1.336700
 30
0.0
 10
122.309300
 20
3.050500
 30
0.0
 10
117.273800
 20
4.738700
 30
0.0
  0
LWPOLYLINE
  5
168
100
AcDbEntity
  8
0
 62
7
100
AcDbPolyline
 90
2
 70
0
 10
159.536800
 20
50.958000
 30
0.0
 10
161.407400
 20
51.638900
 30
0.0
  0
SPLINE
  5
169
100
AcDbEntity
  8
0
 62
7
100
AcDbSpline
 70
8
 71
3
 72
8
 73
4
 74
0
 40
0
 40
0
 40
0
 40
0
 40
1
 40
1
 40
1
 40
1
 10
1.050000
 20
71.173600
 30
0.0
 10
0.784784
 20
71.173600
 30
0.0
 10
0.530430
 20
71.068243
 30
0.0
 10
0.342893
 20
70.880707
 30
0.0
  0
SPLINE
  5
16a
100
AcDbEntity
  8
0
 62
7
100
AcDbSpline
 70
8
 71
3
 72
8
 73
4
 74
0
 40
0
 40
0
 40
0
 40
0
 40
1
 40
1
 40
1
 40
1
 10
0.342893
 20
70.880707
 30
0.0
 10
0.155357
 20
70.693170
 30
0.0
 10
0.050000
 20
70.438816
 30
0.0
 10
0.050000
 20
70.173600
 30
0.0
  0
SPLINE
  5
16b
100
AcDbEntity
  8
0
 62
7
100
AcDbSpline
 70
8
 71
3
 72
8
 73
4
 74
0
 40
0
 40
0
 40
0
 40
0
 40
1
 40
1
 40
1
 40
1
 10
135.791300
 20
1.086600
 30
0.0
 10
135.411900
 20
0.742100
 30
0.0
 10
134.985900
 20
0.487700
 30
0.0
 10
134.503600
 20
0.316500
 30
0.0
  0
LWPOLYLINE
  5
16c
100
AcDbEntity
  8
0
 62
7
100
AcDbPolyline
 90
2
 70
0
 10
146.920200
 20
101.118200
 30
0.0
 10
154.478900
 20
80.350700
 30
0.0
  0
SPLINE
  5
16d
100
AcDbEntity
  8
0
 62
7
100
AcDbSpline
 70
8
 71
3
 72
8
 73
4
 74
0
 40
0
 40
0
 40
0
 40
0
 40
1
 40
1
 40
1
 40
1
 10
0.124900
 20
20.991900
 30
0.0
 10
0.174300
 20
20.871400
 30
0.0
 10
0.246800
 20
20.761800
 30
0.0
 10
0.338300
 20
20.669100
 30
0.0
  0
LWPOLYLINE
  5
16e
100
AcDbEntity
  8
0
 62
7
100
AcDbPolyline
 90
2
 70
0
 10
116.850000
 20
90.173600
 30
0.0
 10
146.920200
 20
101.118200
 30
0.0
  0
LWPOLYLINE
  5
16f
100
AcDbEntity
  8
0
 62
7
100
AcDbPolyline
 90
2
 70
0
 10
161.715000
 20
52.283100
 30
0.0
 10
153.181200
 20
75.729600
 30
0.0
  0
SPLINE
  5
170
100
AcDbEntity
  8
0
 62
7
100
AcDbSpline
 70
8
 71
3
 72
8
 73
4
 74
0
 40
0
 40
0
 40
0
 40
0
 40
1
 40
1
 40
1
 40
1
 10
54.750000
 20
11.613600
 30
0.0
 10
48.358900
 20
12.589200
 30
0.0
 10
42.456600
 20
14.922600
 30
0.0
 10
34.290400
 20
16.875600
 30
0.0
  0
LWPOLYLINE
  5
171
100
AcDbEntity
  8
0
 62
7
100
AcDbPolyline
 90
2
 70
0
 10
163.987100
 20
54.227300
 30
0.0
 10
171.545600
 20
33.460300
 30
0.0
  0
LWPOLYLINE
  5
172
100
AcDbEntity
  8
0
 62
7
100
AcDbPolyline
 90
2
 70
0
 10
150.847800
 20
80.678600
 30
0.0
 10
148.968400
 20
79.994500
 30
0.0
  0
ENDSEC
  0
SECTION
  2
OBJECTS
  0
DICTIONARY
  5
C
330
0
100
AcDbDictionary
  3
ACAD_GROUP
350
D
  3
ACAD_MLINESTYLE
350
17
  0
DICTIONARY
  5
D
330
C
100
AcDbDictionary
  0
DICTIONARY
  5
1A
330
C
100
AcDbDictionary
  0
DICTIONARY
  5
17
330
C
100
AcDbDictionary
  3
STANDARD
350
18
  0
DICTIONARY
  5
19
330
C
100
AcDbDictionary
  0
ENDSEC
  0
EOF
