<?xml version="1.0" standalone="no"?>
 <!DOCTYPE svg PUBLIC "-//W3C//DTD SVG 1.1//EN" 
 "http://www.w3.org/Graphics/SVG/1.1/DTD/svg11.dtd"> 
<svg
  xmlns:svg="http://www.w3.org/2000/svg"
  xmlns="http://www.w3.org/2000/svg"
  xmlns:xlink="http://www.w3.org/1999/xlink"
  version="1.1"
  width="170.5864mm" height="110.2360mm" viewBox="0.0000 0.0000 170.5864 110.2360">
<title>SVG Image created as pcb-brd.svg date 2024/01/24 00:44:22 </title>
  <desc>Image generated by PCBNEW </desc>
<g style="fill:#000000; fill-opacity:1.0000;stroke:#000000; stroke-opacity:1.0000;
stroke-linecap:round; stroke-linejoin:round;"
 transform="translate(0 0) scale(1 1)">
</g>
<g style="fill:#000000; fill-opacity:0.0; 
stroke:#000000; stroke-width:0.0000; stroke-opacity:1; 
stroke-linecap:round; stroke-linejoin:round;">
</g>
<g style="fill:#000000; fill-opacity:0.0; 
stroke:#000000; stroke-width:0.1524; stroke-opacity:1; 
stroke-linecap:round; stroke-linejoin:round;">
<path d="M124.3848 78.9098
L137.5405 83.6981
" />
<path d="M119.5965 92.0655
L124.3848 78.9098
" />
<path d="M137.5405 83.6981
L132.7522 96.8538
" />
<path d="M132.7522 96.8538
L119.5965 92.0655
" />
<path d="M103.1123 74.4101
L116.8997 76.8412
" />
<path d="M100.6813 88.1974
L103.1123 74.4101
" />
<path d="M116.8997 76.8412
L114.4686 90.6285
" />
<path d="M114.4686 90.6285
L100.6813 88.1974
" />
<path d="M81.4500 73.7454
L95.4500 73.7454
" />
<path d="M81.4500 87.7454
L81.4500 73.7454
" />
<path d="M95.4500 73.7454
L95.4500 87.7454
" />
<path d="M95.4500 87.7454
L81.4500 87.7454
" />
<path d="M4.4500 55.7454
L18.4500 55.7454
" />
<path d="M4.4500 69.7454
L4.4500 55.7454
" />
<path d="M18.4500 55.7454
L18.4500 69.7454
" />
<path d="M18.4500 69.7454
L4.4500 69.7454
" />
<path d="M4.4500 39.7454
L18.4500 39.7454
" />
<path d="M4.4500 53.7454
L4.4500 39.7454
" />
<path d="M18.4500 39.7454
L18.4500 53.7454
" />
<path d="M18.4500 53.7454
L4.4500 53.7454
" />
<path d="M99.4500 54.7454
L113.4500 54.7454
" />
<path d="M99.4500 68.7454
L99.4500 54.7454
" />
<path d="M113.4500 54.7454
L113.4500 68.7454
" />
<path d="M113.4500 68.7454
L99.4500 68.7454
" />
<path d="M80.4500 52.2454
L94.4500 52.2454
" />
<path d="M80.4500 66.2454
L80.4500 52.2454
" />
<path d="M94.4500 52.2454
L94.4500 66.2454
" />
<path d="M94.4500 66.2454
L80.4500 66.2454
" />
<path d="M61.4500 47.2454
L75.4500 47.2454
" />
<path d="M61.4500 61.2454
L61.4500 47.2454
" />
<path d="M75.4500 47.2454
L75.4500 61.2454
" />
<path d="M75.4500 61.2454
L61.4500 61.2454
" />
<path d="M42.4500 52.2454
L56.4500 52.2454
" />
<path d="M42.4500 66.2454
L42.4500 52.2454
" />
<path d="M56.4500 52.2454
L56.4500 66.2454
" />
<path d="M56.4500 66.2454
L42.4500 66.2454
" />
<path d="M23.4500 63.7454
L37.4500 63.7454
" />
<path d="M23.4500 77.7454
L23.4500 63.7454
" />
<path d="M37.4500 63.7454
L37.4500 77.7454
" />
<path d="M37.4500 77.7454
L23.4500 77.7454
" />
<path d="M99.4500 38.7454
L113.4500 38.7454
" />
<path d="M99.4500 52.7454
L99.4500 38.7454
" />
<path d="M113.4500 38.7454
L113.4500 52.7454
" />
<path d="M113.4500 52.7454
L99.4500 52.7454
" />
<path d="M80.4500 36.2454
L94.4500 36.2454
" />
<path d="M80.4500 50.2454
L80.4500 36.2454
" />
<path d="M94.4500 36.2454
L94.4500 50.2454
" />
<path d="M94.4500 50.2454
L80.4500 50.2454
" />
<path d="M61.4500 31.2454
L75.4500 31.2454
" />
<path d="M61.4500 45.2454
L61.4500 31.2454
" />
<path d="M75.4500 31.2454
L75.4500 45.2454
" />
<path d="M75.4500 45.2454
L61.4500 45.2454
" />
<path d="M42.4500 36.2454
L56.4500 36.2454
" />
<path d="M42.4500 50.2454
L42.4500 36.2454
" />
<path d="M56.4500 36.2454
L56.4500 50.2454
" />
<path d="M56.4500 50.2454
L42.4500 50.2454
" />
<path d="M23.4500 47.7454
L37.4500 47.7454
" />
<path d="M23.4500 61.7454
L23.4500 47.7454
" />
<path d="M37.4500 47.7454
L37.4500 61.7454
" />
<path d="M37.4500 61.7454
L23.4500 61.7454
" />
<path d="M99.4500 22.7454
L113.4500 22.7454
" />
<path d="M99.4500 36.7454
L99.4500 22.7454
" />
<path d="M113.4500 22.7454
L113.4500 36.7454
" />
<path d="M113.4500 36.7454
L99.4500 36.7454
" />
<path d="M80.4500 20.2454
L94.4500 20.2454
" />
<path d="M80.4500 34.2454
L80.4500 20.2454
" />
<path d="M94.4500 20.2454
L94.4500 34.2454
" />
<path d="M94.4500 34.2454
L80.4500 34.2454
" />
<path d="M61.4500 15.2454
L75.4500 15.2454
" />
<path d="M61.4500 29.2454
L61.4500 15.2454
" />
<path d="M75.4500 15.2454
L75.4500 29.2454
" />
<path d="M75.4500 29.2454
L61.4500 29.2454
" />
<path d="M42.4500 20.2454
L56.4500 20.2454
" />
<path d="M42.4500 34.2454
L42.4500 20.2454
" />
<path d="M56.4500 20.2454
L56.4500 34.2454
" />
<path d="M56.4500 34.2454
L42.4500 34.2454
" />
<path d="M23.4500 31.7454
L37.4500 31.7454
" />
<path d="M23.4500 45.7454
L23.4500 31.7454
" />
<path d="M37.4500 31.7454
L37.4500 45.7454
" />
<path d="M37.4500 45.7454
L23.4500 45.7454
" />
</g>
<g style="fill:#000000; fill-opacity:0.0; 
stroke:#000000; stroke-width:0.2000; stroke-opacity:1; 
stroke-linecap:round; stroke-linejoin:round;">
<path d="M119.8955 12.6865
L131.1890 43.7152
" />
<path d="M131.1890 43.7152
L147.8967 37.6341
" />
<path d="M124.1689 9.5455
L131.3106 6.9462
" />
<path d="M125.8790 14.2440
L124.1689 9.5455
" />
<path d="M131.3106 6.9462
L133.0207 11.6446
" />
<path d="M133.0207 11.6446
L125.8790 14.2440
" />
<path d="M136.6032 6.6054
L119.8955 12.6865
" />
<path d="M147.8967 37.6341
L136.6032 6.6054
" />
</g>
<g style="fill:#000000; fill-opacity:0.0; 
stroke:#000000; stroke-width:0.1200; stroke-opacity:1; 
stroke-linecap:round; stroke-linejoin:round;">
<path d="M139.6666 60.6042
L152.5216 55.9254
" />
<path d="M152.5216 55.9254
L140.2089 22.0964
" />
<path d="M140.2089 22.0964
L127.3539 26.7753
" />
<path d="M127.3539 26.7753
L139.6666 60.6042
" />
<g >
</g>
<g >
</g>
<g >
</g>
<g >
</g>
<g >
</g>
<g >
</g>
<g >
</g>
<g >
</g>
<g >
</g>
<g >
</g>
<g >
</g>
<g >
</g>
<g >
</g>
<g >
</g>
<g >
</g>
<g >
</g>
<g >
</g>
<g >
</g>
<g >
</g>
<g >
</g>
<g >
</g>
<g >
</g>
<g >
</g>
<g >
</g>
<g >
</g>
<g >
</g>
<g >
</g>
<g >
</g>
<g >
</g>
<g >
</g>
<g >
</g>
<g >
</g>
<g >
</g>
<g >
</g>
<g >
</g>
<g >
</g>
<g >
</g>
<g >
</g>
<g >
</g>
<g >
</g>
<g >
</g>
<g >
</g>
<g >
</g>
<g >
</g>
<g >
</g>
<g >
</g>
<g >
</g>
<g >
</g>
<g >
</g>
<g >
</g>
<g >
</g>
<g >
</g>
<g >
</g>
<g >
</g>
<g >
</g>
<g >
</g>
<g >
</g>
<g >
</g>
<g >
</g>
<g >
</g>
<g >
</g>
<g >
</g>
</g>
<g style="fill:#000000; fill-opacity:0.0; 
stroke:#000000; stroke-width:0.1200; stroke-opacity:1; 
stroke-linecap:round; stroke-linejoin:round;">
</g>
<g style="fill:#000000; fill-opacity:0.0; 
stroke:#000000; stroke-width:0.1000; stroke-opacity:1; 
stroke-linecap:round; stroke-linejoin:round;">
<path d="M18.0500 29.3454
L18.0500 24.3454
" />
<path d="M147.6696 22.1653
L157.8960 50.2621
" />
<path d="M170.5456,68.0586 C165.3773,69.9391 159.9652,72.2073 155.1399,74.9108" />
<path d="M34.2904,84.6433 C25.5435,82.5515 15.4974,81.2064 1.0459,81.1474" />
<path d="M19.0500 23.3454 A1.0000 1.0000 0.0 0 0 18.0500 24.3454" />
<path d="M116.2738,96.7802 C110.6079,94.8807 105.0172,93.4296 98.2666,92.6984" />
<path d="M152.1812 25.7894
L150.4886 21.1392
" />
<path d="M39.0500 11.3454 A1.0000 1.0000 0.0 0 0 38.0500 12.3454" />
<path d="M79.0500,92.2095 C72.4430,92.2562 67.0733,92.0735 54.7500,89.9054" />
<path d="M135.9296,98.8897 C135.6146,99.4911 135.2500,100.0156 134.7913,100.4323" />
<path d="M0.0500 80.1474
L0.0500 31.3454
" />
<path d="M139.0632,90.6431 C137.5137,94.0192 136.9616,96.9192 135.9296,98.8897" />
<path d="M39.0500 11.3454
L115.8500 11.3454
" />
<path d="M0.3383,80.8499 C0.4297,80.9426 0.5384,81.0165 0.6582,81.0675" />
<path d="M37.0500 23.3454 A1.0000 1.0000 0.0 0 0 38.0500 22.3454" />
<path d="M0.6582,81.0675 C0.7808,81.1197 0.9127,81.1469 1.0459,81.1474" />
<path d="M98.2666,92.6984 C91.2910,91.9428 85.0156,92.1674 79.0500,92.2095" />
<path d="M133.5036,101.2024 C132.9641,101.3938 132.3905,101.4678 131.8200,101.4733" />
<path d="M157.8960 50.2621 A0.5000 0.5000 0.0 0 0 158.5368 50.5609" />
<path d="M0.0500,80.1474 C0.0500,80.2776 0.0754,80.4066 0.1249,80.5271" />
<path d="M17.0500 30.3454 A1.0000 1.0000 0.0 0 0 18.0500 29.3454" />
<path d="M38.0500 22.3454
L38.0500 12.3454
" />
<path d="M1.0500 30.3454
L17.0500 30.3454
" />
<path d="M147.9684 21.5244 A0.5001 0.5001 0.0 0 0 147.6696 22.1653" />
<path d="M153.4789 21.1682
L162.9871 47.2917
" />
<path d="M150.4886 21.1392 A0.5000 0.5000 0.0 0 0 149.8478 20.8404" />
<path d="M160.4074 49.8801 A0.5000 0.5000 0.0 0 0 160.7150 49.2358" />
<path d="M19.0500 23.3454
L37.0500 23.3454
" />
<path d="M131.8200,101.4733 C130.8745,101.4824 129.7955,101.3054 128.5698,100.9912" />
<path d="M158.5368 50.5609
L160.4074 49.8801
" />
<path d="M155.1399,74.9108 C151.7065,76.8344 148.3113,79.1211 145.4435,81.8449" />
<path d="M145.4435,81.8449 C142.1980,84.9274 140.3193,87.9061 139.0632,90.6431" />
<path d="M128.5698,100.9912 C125.4145,100.1822 121.3093,98.4684 116.2738,96.7802" />
<circle cx="126.0269" cy="19.3880" r="1.0000" /> 
<path d="M145.9202 0.4008
L153.4789 21.1682
" />
<path d="M1.0500 30.3454 A1.0000 1.0000 0.0 0 0 0.0500 31.3454" />
<circle cx="136.2131" cy="15.6805" r="1.0000" /> 
<path d="M134.7913,100.4323 C134.4119,100.7769 133.9859,101.0312 133.5036,101.2024" />
<path d="M115.8500 11.3454
L145.9202 0.4008
" />
<path d="M0.1249,80.5271 C0.1743,80.6475 0.2468,80.7572 0.3383,80.8499" />
<path d="M160.7150 49.2358
L152.1812 25.7894
" />
<path d="M162.9871 47.2917
L170.5456 68.0586
" />
<path d="M54.7500,89.9054 C48.3589,88.9298 42.4566,86.5964 34.2904,84.6433" />
<path d="M149.8478 20.8404
L147.9684 21.5244
" />
<g >
</g>
<g >
</g>
<g >
</g>
<g >
</g>
<g >
</g>
<g >
</g>
<g >
</g>
<g >
</g>
<g >
</g>
<g >
</g>
<g >
</g>
<g >
</g>
<g >
</g>
<g >
</g>
<g >
</g>
<g >
</g>
<g >
</g>
<g >
</g>
<g >
</g>
<g >
</g>
<g >
</g>
<g >
</g>
<g >
</g>
<g >
</g>
<g >
</g>
<g >
</g>
<g >
</g>
<g >
</g>
<g >
</g>
<g >
</g>
<g >
</g>
<g >
</g>
<g >
</g>
<g >
</g>
<g >
</g>
<g >
</g>
<g >
</g>
<g >
</g>
<g >
</g>
<g >
</g>
<g >
</g>
<g >
</g>
<g >
</g>
<g >
</g>
<g >
</g>
<g >
</g>
<g >
</g>
<g >
</g>
<g >
</g>
<g >
</g>
<g >
</g>
<g >
</g>
<g >
</g>
<g >
</g>
<g >
</g>
<g >
</g>
<g >
</g>
<g >
</g>
<g >
</g>
<g >
</g>
<g >
</g>
<g >
</g>
</g> 
</svg>
